<svg xmlns="http://www.w3.org/2000/svg" viewBox="0 0 64 80" x="0px" y="0px"><g data-name="Layer 21"><path d="M50.53,38.9a4.14,4.14,0,1,0-8.27,0,1,1,0,0,0,2,0,2.14,2.14,0,1,1,4.27,0A1,1,0,0,0,50.53,38.9Z"/><path d="M45.74,45.39a1,1,0,0,0-1,1,1.78,1.78,0,0,1-3.45.6,15.44,15.44,0,0,0,1.65-2.59,1.81,1.81,0,0,0-1.55-2.7H39a1.8,1.8,0,0,0-1.56,2.7A15.35,15.35,0,0,0,39.06,47a1.78,1.78,0,0,1-3.45-.59,1,1,0,0,0-2,0,3.76,3.76,0,0,0,3.33,3.73,3.8,3.8,0,0,0,6.48,0,3.77,3.77,0,0,0,3.32-3.73A1,1,0,0,0,45.74,45.39Z"/><path d="M57.11,46.75a16.94,16.94,0,0,0-.6-8.39l2.38-14.79a2.39,2.39,0,0,0-3.64-2.37l-9.66,6.25a17.4,17.4,0,0,0-4.4-.85c.08-.53.14-1.08.17-1.65A2.13,2.13,0,0,0,45,23.28l0-10.89A6.62,6.62,0,0,0,40.48,6L31.08,3.1A2.09,2.09,0,0,0,28.4,4.87a16,16,0,0,0-8.85,0A2.11,2.11,0,0,0,16.86,3.1L7.47,6A6.61,6.61,0,0,0,3,12.39L3,23.28A2.13,2.13,0,0,0,6.58,25C7,30.85,9.78,35.24,15.46,39A9.29,9.29,0,0,0,23,44.89a16.46,16.46,0,0,0,.22,1.87,9.82,9.82,0,0,0-3.87,7.81,1,1,0,1,0,2,0,7.85,7.85,0,0,1,2.39-5.63,15.29,15.29,0,0,0,.93,2.33c-.82.74-3.14,6.2-.78,6.37a1,1,0,0,0,1-1,7,7,0,0,1,.87-3.44c6.57,10.35,22.25,10.33,28.81,0a7,7,0,0,1,.88,3.45,1,1,0,0,0,1,1c2.36-.17,0-5.63-.79-6.38a16.16,16.16,0,0,0,.93-2.33A7.82,7.82,0,0,1,59,54.57a1,1,0,0,0,2,0A9.82,9.82,0,0,0,57.11,46.75ZM8.52,23.35c0-.4,0-.79.05-1.18L18.79,7.24a14.07,14.07,0,0,1,10.37,0l5.75,8.39h0l4.47,6.54c.71,7.31-3.65,13.68-10.9,16.66l-.21.08a4.93,4.93,0,0,1-3.3-.33V35.27a2,2,0,0,0,.51-.41h0l2.8-3.3a2,2,0,0,0-1.5-3.25H21.17a2,2,0,0,0-1.5,3.25c.31.31,2.93,3.62,3.3,3.71v3.31a4.87,4.87,0,0,1-3.28.33h0C12.83,36.19,8.24,30.25,8.52,23.35Zm10.39,17.4.06,0,.29.09A6.72,6.72,0,0,0,24,40.31a6.76,6.76,0,0,0,4.7.56.64.64,0,0,0,.22-.06l.14-.05A7,7,0,0,1,18.91,40.75Zm35.22,9.08c-1-.63-3.75-1.82-4,.08a1,1,0,0,0,1,1,3.49,3.49,0,0,1,2.07.7c-5.73,9.79-20.34,9.8-26.07,0a3.51,3.51,0,0,1,2.08-.71,1,1,0,0,0,1-1c-.25-1.9-3-.7-4-.07a15.42,15.42,0,0,1-.75-2.17,7.84,7.84,0,0,1,3.76-1,1,1,0,0,0,1-1c-.12-2-4.12-.52-5.15-.07,0-.25-.05-.51-.06-.76A9.3,9.3,0,0,0,32.49,39a26.31,26.31,0,0,0,2.58-1.94,2.14,2.14,0,0,1,1,1.82,1,1,0,0,0,1,1c2.08-.3.51-3.5-.52-4.21a16,16,0,0,0,4.19-7.1,15.14,15.14,0,0,1,14.5,17c-1-.44-5-1.92-5.13.08a1,1,0,0,0,1,1,7.87,7.87,0,0,1,3.74.95A13.92,13.92,0,0,1,54.13,49.83Z"/><path d="M28,23.85a1,1,0,0,0,1-1c.08-3.31,4.2-3.31,4.28,0a1,1,0,0,0,2,0,4.34,4.34,0,0,0-4.14-4.51A4.34,4.34,0,0,0,27,22.85,1,1,0,0,0,28,23.85Z"/><path d="M19,22.85a1,1,0,0,0,2,0,4.34,4.34,0,0,0-4.14-4.51,4.34,4.34,0,0,0-4.14,4.51,1,1,0,0,0,2,0C14.76,19.54,18.88,19.54,19,22.85Z"/></g><text x="0" y="79" fill="#000000" font-size="5px" font-weight="bold" font-family="'Helvetica Neue', Helvetica, Arial-Unicode, Arial, Sans-serif">Created by Colourcreatype</text><text x="0" y="84" fill="#000000" font-size="5px" font-weight="bold" font-family="'Helvetica Neue', Helvetica, Arial-Unicode, Arial, Sans-serif">from the Noun Project</text></svg>