<?xml version="1.0" encoding="utf-8"?>
<!-- Generator: Adobe Illustrator 23.0.3, SVG Export Plug-In . SVG Version: 6.00 Build 0)  -->
<svg version="1.1" id="Layer_1" xmlns="http://www.w3.org/2000/svg" xmlns:xlink="http://www.w3.org/1999/xlink" x="0px" y="0px"
	 viewBox="0 0 24 24" style="enable-background:new 0 0 24 24;" xml:space="preserve">
<style type="text/css">
	.st0{fill:url(#SVGID_1_);}
	.st1{fill:none;stroke:#FFFFFF;stroke-width:0.75;stroke-miterlimit:10;}
	.st2{fill:url(#SVGID_2_);}
	.st3{fill:url(#SVGID_3_);}
	.st4{fill:url(#SVGID_4_);}
	.st5{fill:url(#SVGID_5_);}
	.st6{fill:url(#SVGID_6_);}
	.st7{fill:url(#SVGID_7_);}
	.st8{fill:url(#SVGID_8_);}
	.st9{fill:url(#SVGID_9_);}
	.st10{fill:url(#SVGID_10_);}
	.st11{fill:url(#SVGID_11_);}
	.st12{fill:url(#SVGID_12_);}
	.st13{fill:url(#SVGID_13_);}
	.st14{fill:#FFFFFF;}
	.st15{fill:url(#SVGID_14_);}
	.st16{fill:url(#SVGID_15_);}
	.st17{fill:url(#SVGID_16_);}
	.st18{fill:url(#SVGID_17_);}
	.st19{fill:url(#SVGID_18_);}
	.st20{fill:url(#SVGID_19_);}
	.st21{fill:url(#SVGID_20_);}
	.st22{fill:url(#SVGID_21_);}
	.st23{fill:url(#SVGID_22_);}
	.st24{fill:url(#SVGID_23_);}
	.st25{fill:url(#SVGID_24_);}
	.st26{fill:url(#SVGID_25_);}
	.st27{fill:url(#SVGID_26_);}
	.st28{fill:url(#SVGID_27_);}
	.st29{fill:url(#SVGID_28_);}
	.st30{fill:url(#SVGID_29_);}
	.st31{fill:url(#SVGID_30_);}
	.st32{fill:url(#SVGID_31_);}
	.st33{fill:url(#SVGID_32_);}
	.st34{fill:url(#SVGID_33_);}
	.st35{fill:url(#SVGID_34_);}
	.st36{fill:url(#SVGID_35_);}
	.st37{fill:url(#SVGID_36_);}
	.st38{fill:url(#SVGID_37_);}
	.st39{fill:url(#SVGID_38_);}
	.st40{fill:url(#SVGID_39_);}
	.st41{fill:url(#SVGID_40_);}
	.st42{fill:url(#XMLID_2_);}
	.st43{fill:url(#XMLID_3_);}
	.st44{fill:url(#SVGID_41_);}
	.st45{fill:url(#SVGID_42_);}
	.st46{fill:url(#SVGID_43_);}
	.st47{fill:url(#SVGID_44_);}
	.st48{fill:url(#SVGID_45_);}
	.st49{fill:url(#SVGID_46_);}
	.st50{fill:url(#SVGID_47_);}
	.st51{fill:url(#SVGID_48_);}
	.st52{fill:url(#SVGID_49_);}
</style>
<g>
	<linearGradient id="SVGID_1_" gradientUnits="userSpaceOnUse" x1="0.5793" y1="12" x2="23.4207" y2="12">
		<stop  offset="0" style="stop-color:#08B54E"/>
		<stop  offset="1" style="stop-color:#0EE23B"/>
	</linearGradient>
	<circle class="st0" cx="12" cy="12" r="11.4"/>
	<circle class="st14" cx="12" cy="12" r="10.1"/>
	
		<linearGradient id="SVGID_2_" gradientUnits="userSpaceOnUse" x1="-39.0628" y1="-172.2714" x2="-22.0178" y2="-172.2714" gradientTransform="matrix(0.7071 0.7071 -0.7071 0.7071 -92.411 151.2175)">
		<stop  offset="0.3048" style="stop-color:#B7BDD3"/>
		<stop  offset="1" style="stop-color:#FFFFFF"/>
	</linearGradient>
	<circle class="st2" cx="12" cy="12" r="9.4"/>
</g>
<g id="XMLID_468_">
	<linearGradient id="XMLID_2_" gradientUnits="userSpaceOnUse" x1="9.116" y1="12.1591" x2="15.2189" y2="12.1591">
		<stop  offset="0" style="stop-color:#08B54E"/>
		<stop  offset="1" style="stop-color:#0EE23B"/>
	</linearGradient>
	<path id="XMLID_469_" class="st42" d="M14.9,13.2c0,0-0.9-0.4-1.1-0.5c-0.1,0-0.1,0-0.2,0c-0.1,0-0.2,0.1-0.3,0.2
		c-0.1,0.1-0.4,0.4-0.4,0.5c0,0,0,0,0,0c0,0-0.1-0.1-0.2-0.1c-1-0.4-1.7-1.4-1.8-1.6c0,0,0,0,0,0c0,0,0,0,0.1-0.1
		c0,0,0.1-0.1,0.2-0.2c0,0,0-0.1,0.1-0.1c0.1-0.1,0.1-0.2,0.1-0.2l0,0c0.1-0.2,0-0.3,0-0.4c0,0-0.4-0.9-0.4-1
		c-0.1-0.2-0.2-0.3-0.4-0.3c0,0,0,0-0.1,0c-0.1,0-0.5,0.1-0.7,0.2c-0.2,0.1-0.6,0.6-0.6,1.3c0,0.7,0.4,1.3,0.6,1.6c0,0,0,0,0,0
		c0.7,1,1.6,1.8,2.5,2.1c0.9,0.3,1.3,0.4,1.5,0.4c0,0,0,0,0,0c0.1,0,0.2,0,0.2,0l0,0c0.3,0,0.9-0.4,1.1-0.8c0.1-0.3,0.1-0.7,0.1-0.8
		C15.1,13.3,15,13.2,14.9,13.2z"/>
	<linearGradient id="XMLID_3_" gradientUnits="userSpaceOnUse" x1="5.9251" y1="12.2784" x2="18.0749" y2="12.2784">
		<stop  offset="0" style="stop-color:#08B54E"/>
		<stop  offset="1" style="stop-color:#0EE23B"/>
	</linearGradient>
	<path id="XMLID_470_" class="st43" d="M12.1,6.2c-3.3,0-6,2.7-6,5.9c0,1.1,0.3,2.1,0.8,3l-1,3c0,0.1,0,0.1,0,0.2c0,0,0.1,0,0.1,0
		c0,0,0,0,0,0l3.2-1c0.9,0.5,1.8,0.7,2.8,0.7c3.3,0,6-2.7,6-5.9C18.1,8.9,15.4,6.2,12.1,6.2z M12.1,16.8c-0.9,0-1.8-0.3-2.6-0.8
		c0,0-0.1,0-0.1,0c0,0,0,0,0,0l-1.6,0.5L8.3,15c0,0,0-0.1,0-0.1c-0.6-0.8-0.9-1.8-0.9-2.7c0-2.6,2.1-4.7,4.7-4.7
		c2.6,0,4.7,2.1,4.7,4.7C16.8,14.7,14.7,16.8,12.1,16.8z"/>
</g>
</svg>
